<svg width="40" height="40" viewBox="0 0 40 40" fill="none" xmlns="http://www.w3.org/2000/svg">
<path d="M20 40C31.0457 40 40 31.0457 40 20C40 8.9543 31.0457 0 20 0C8.9543 0 0 8.9543 0 20C0 31.0457 8.9543 40 20 40Z" fill="#EEEFF4"/>
<path d="M20 30C25.5228 30 30 25.523 30 20C30 14.477 25.5228 10 20 10C14.4772 10 10 14.477 10 20C10 25.523 14.4772 30 20 30Z" stroke="#040402" stroke-width="2" stroke-linecap="round" stroke-linejoin="round"/>
<path d="M17.09 17C17.3251 16.332 17.7891 15.768 18.3999 15.409C19.0107 15.05 19.7289 14.919 20.4271 15.039C21.1254 15.159 21.7588 15.522 22.215 16.064C22.6713 16.606 22.921 17.292 22.92 18C22.92 20 19.92 21 19.92 21" stroke="#040402" stroke-width="2" stroke-linecap="round" stroke-linejoin="round"/>
<path d="M20 25H20.01" stroke="#040402" stroke-width="2" stroke-linecap="round" stroke-linejoin="round"/>
</svg>
