<svg width="43" height="38" viewBox="0 0 43 38" fill="none" xmlns="http://www.w3.org/2000/svg">
<path d="M21.054 38C32.6818 38 42.1081 29.4934 42.1081 19C42.1081 8.50659 32.6818 0 21.054 0C9.42613 0 -0.00012207 8.50659 -0.00012207 19C-0.00012207 29.4934 9.42613 38 21.054 38Z" fill="#EEEFF4"/>
<path d="M27.607 17.179H27.089L23.569 12.777C23.374 12.535 23.128 12.339 22.848 12.204C22.568 12.07 22.262 12 21.951 12H15.027C14.18 12 13.419 12.516 13.104 13.302L11.554 17.252C10.662 17.483 10 18.286 10 19.25V22.875C10 23.161 10.232 23.393 10.518 23.393H12.071C12.071 25.109 13.463 26.5 15.179 26.5C16.895 26.5 18.286 25.109 18.286 23.393H22.429C22.429 25.109 23.82 26.5 25.536 26.5C27.252 26.5 28.643 25.109 28.643 23.393H30.196C30.483 23.393 30.714 23.161 30.714 22.875V20.286C30.714 18.57 29.323 17.179 27.607 17.179ZM15.179 24.946C14.322 24.946 13.625 24.25 13.625 23.393C13.625 22.536 14.322 21.839 15.179 21.839C16.035 21.839 16.732 22.536 16.732 23.393C16.732 24.25 16.035 24.946 15.179 24.946ZM17.509 17.179H13.785L15.027 14.071H17.509V17.179ZM19.062 17.179V14.071H21.951L24.437 17.179H19.062ZM25.536 24.946C24.679 24.946 23.982 24.25 23.982 23.393C23.982 22.536 24.679 21.839 25.536 21.839C26.392 21.839 27.089 22.536 27.089 23.393C27.089 24.25 26.392 24.946 25.536 24.946Z" fill="#161826"/>
</svg>
