<svg xmlns="http://www.w3.org/2000/svg" width="18.288" height="20.43" viewBox="0 0 18.288 20.43">
  <g id="user_2_" data-name="user (2)" transform="translate(-24.165)">
    <g id="Group_104" data-name="Group 104" transform="translate(28.005)">
      <g id="Group_103" data-name="Group 103">
        <path id="Path_597" data-name="Path 597" d="M116.1,0a5.3,5.3,0,1,0,5.3,5.3A5.319,5.319,0,0,0,116.1,0Z" transform="translate(-110.791)"/>
      </g>
    </g>
    <g id="Group_106" data-name="Group 106" transform="translate(24.165 10.988)">
      <g id="Group_105" data-name="Group 105" transform="translate(0)">
        <path id="Path_598" data-name="Path 598" d="M42.413,251.7a4.945,4.945,0,0,0-.533-.973,6.593,6.593,0,0,0-4.563-2.872.976.976,0,0,0-.672.162,5.654,5.654,0,0,1-6.671,0,.869.869,0,0,0-.672-.162,6.546,6.546,0,0,0-4.563,2.872,5.7,5.7,0,0,0-.533.973.493.493,0,0,0,.023.44,9.241,9.241,0,0,0,.625.927,8.8,8.8,0,0,0,1.066,1.2,13.886,13.886,0,0,0,1.066.927,10.563,10.563,0,0,0,12.6,0,10.185,10.185,0,0,0,1.066-.927,10.7,10.7,0,0,0,1.066-1.2,8.119,8.119,0,0,0,.625-.927A.4.4,0,0,0,42.413,251.7Z" transform="translate(-24.165 -247.841)"/>
      </g>
    </g>
  </g>
</svg>
