<svg width="22" height="22" viewBox="0 0 22 22" fill="none" xmlns="http://www.w3.org/2000/svg">
<path d="M21.2143 18.5H0.7857C0.5773 18.5 0.3775 18.579 0.2301 18.7197C0.0827997 18.8603 0 19.0511 0 19.25V20.75C0 20.9489 0.0827997 21.1397 0.2301 21.2803C0.3775 21.421 0.5773 21.5 0.7857 21.5H21.2143C21.4227 21.5 21.6225 21.421 21.7699 21.2803C21.9172 21.1397 22 20.9489 22 20.75V19.25C22 19.0511 21.9172 18.8603 21.7699 18.7197C21.6225 18.579 21.4227 18.5 21.2143 18.5ZM21.2143 12.5H0.7857C0.5773 12.5 0.3775 12.579 0.2301 12.7197C0.0827997 12.8603 0 13.0511 0 13.25V14.75C0 14.9489 0.0827997 15.1397 0.2301 15.2803C0.3775 15.421 0.5773 15.5 0.7857 15.5H21.2143C21.4227 15.5 21.6225 15.421 21.7699 15.2803C21.9172 15.1397 22 14.9489 22 14.75V13.25C22 13.0511 21.9172 12.8603 21.7699 12.7197C21.6225 12.579 21.4227 12.5 21.2143 12.5ZM21.2143 6.5H0.7857C0.5773 6.5 0.3775 6.579 0.2301 6.7197C0.0827997 6.8603 0 7.0511 0 7.25V8.75C0 8.9489 0.0827997 9.1397 0.2301 9.2803C0.3775 9.421 0.5773 9.5 0.7857 9.5H21.2143C21.4227 9.5 21.6225 9.421 21.7699 9.2803C21.9172 9.1397 22 8.9489 22 8.75V7.25C22 7.0511 21.9172 6.8603 21.7699 6.7197C21.6225 6.579 21.4227 6.5 21.2143 6.5ZM21.2143 0.5H0.7857C0.5773 0.5 0.3775 0.579 0.2301 0.7197C0.0827997 0.8603 0 1.0511 0 1.25V2.75C0 2.9489 0.0827997 3.1397 0.2301 3.2803C0.3775 3.421 0.5773 3.5 0.7857 3.5H21.2143C21.4227 3.5 21.6225 3.421 21.7699 3.2803C21.9172 3.1397 22 2.9489 22 2.75V1.25C22 1.0511 21.9172 0.8603 21.7699 0.7197C21.6225 0.579 21.4227 0.5 21.2143 0.5Z" fill="black"/>
</svg>
