<svg width="43" height="38" viewBox="0 0 43 38" fill="none" xmlns="http://www.w3.org/2000/svg">
<path d="M21.1622 38C32.7901 38 42.2163 29.4934 42.2163 19C42.2163 8.50659 32.7901 0 21.1622 0C9.53434 0 0.108093 8.50659 0.108093 19C0.108093 29.4934 9.53434 38 21.1622 38Z" fill="#EEEFF4"/>
<path d="M20.9783 10C15.5235 10 11.1082 14.414 11.1082 19.87V21.721C11.1082 21.95 11.172 22.175 11.2924 22.369C11.4129 22.564 11.5852 22.722 11.7902 22.824L12.3447 23.102C12.4222 25.418 14.3245 27.273 16.6601 27.273H17.5854C18.0965 27.273 18.5108 26.858 18.5108 26.347V19.562C18.5108 19.051 18.0965 18.636 17.5854 18.636H16.6601C15.4517 18.636 14.3595 19.133 13.5757 19.933V19.87C13.5757 15.788 16.8965 12.468 20.9783 12.468C25.06 12.468 28.381 15.788 28.381 19.87V19.933C27.597 19.133 26.505 18.636 25.296 18.636H24.371C23.86 18.636 23.446 19.051 23.446 19.562V26.347C23.446 26.858 23.86 27.273 24.371 27.273H25.296C27.632 27.273 29.534 25.418 29.612 23.102L30.166 22.824C30.371 22.722 30.544 22.564 30.664 22.369C30.785 22.175 30.848 21.95 30.848 21.721V19.87C30.848 14.415 26.434 10 20.9783 10Z" fill="#161826"/>
</svg>
