<svg width="43" height="38" viewBox="0 0 43 38" fill="none" xmlns="http://www.w3.org/2000/svg">
<path d="M21.487 38C33.1148 38 42.5411 29.4934 42.5411 19C42.5411 8.50659 33.1148 0 21.487 0C9.85911 0 0.432861 8.50659 0.432861 19C0.432861 29.4934 9.85911 38 21.487 38Z" fill="#EEEFF4"/>
<path d="M10.433 19.5V23.75C10.433 24.338 10.907 24.812 11.495 24.812H12.558V18.438H11.495C10.907 18.438 10.433 18.912 10.433 19.5ZM25.839 14.188H22.12V12.062C22.12 11.475 21.645 11 21.058 11C20.47 11 19.995 11.475 19.995 12.062V14.188H16.276C14.809 14.188 13.62 15.376 13.62 16.844V25.875C13.62 27.047 14.573 28 15.745 28H26.37C27.542 28 28.495 27.047 28.495 25.875V16.844C28.495 15.376 27.306 14.188 25.839 14.188ZM18.933 24.812H16.808V23.75H18.933V24.812ZM17.87 20.828C17.136 20.828 16.542 20.234 16.542 19.5C16.542 18.766 17.136 18.172 17.87 18.172C18.604 18.172 19.198 18.766 19.198 19.5C19.198 20.234 18.604 20.828 17.87 20.828ZM22.12 24.812H19.995V23.75H22.12V24.812ZM25.308 24.812H23.183V23.75H25.308V24.812ZM24.245 20.828C23.511 20.828 22.917 20.234 22.917 19.5C22.917 18.766 23.511 18.172 24.245 18.172C24.979 18.172 25.573 18.766 25.573 19.5C25.573 20.234 24.979 20.828 24.245 20.828ZM30.62 18.438H29.558V24.812H30.62C31.208 24.812 31.683 24.338 31.683 23.75V19.5C31.683 18.912 31.208 18.438 30.62 18.438Z" fill="#161826"/>
</svg>
