<svg width="43" height="38" viewBox="0 0 43 38" fill="none" xmlns="http://www.w3.org/2000/svg">
<path d="M21.162 38C32.7899 38 42.2161 29.4934 42.2161 19C42.2161 8.50659 32.7899 0 21.162 0C9.53416 0 0.10791 8.50659 0.10791 19C0.10791 29.4934 9.53416 38 21.162 38Z" fill="#EEEFF4"/>
<path d="M26.236 13.818H16.302C15.483 13.818 14.677 14.02 13.955 14.407C13.234 14.794 12.619 15.353 12.166 16.035C11.712 16.717 11.435 17.5 11.358 18.315C11.28 19.131 11.406 19.952 11.723 20.707C12.04 21.462 12.539 22.127 13.175 22.642C13.811 23.158 14.565 23.508 15.369 23.662C16.173 23.815 17.003 23.768 17.784 23.523C18.566 23.279 19.275 22.845 19.848 22.26H22.688C23.261 22.845 23.97 23.279 24.751 23.523C25.533 23.768 26.362 23.815 27.166 23.662C27.971 23.508 28.724 23.158 29.36 22.643C29.997 22.127 30.495 21.463 30.813 20.708C31.13 19.953 31.255 19.132 31.178 18.317C31.101 17.502 30.824 16.718 30.371 16.036C29.918 15.354 29.304 14.795 28.582 14.408C27.861 14.021 27.055 13.818 26.236 13.818ZM19.033 19.157C19.033 19.255 18.994 19.35 18.924 19.42C18.854 19.49 18.76 19.529 18.661 19.529H17.047V21.143C17.047 21.242 17.008 21.336 16.938 21.406C16.868 21.476 16.773 21.515 16.674 21.515H15.93C15.831 21.515 15.736 21.476 15.666 21.406C15.596 21.336 15.557 21.242 15.557 21.143V19.529H13.943C13.844 19.529 13.75 19.49 13.68 19.42C13.61 19.35 13.571 19.255 13.571 19.157V18.412C13.571 18.313 13.61 18.218 13.68 18.148C13.75 18.078 13.844 18.039 13.943 18.039H15.557V16.425C15.557 16.327 15.596 16.232 15.666 16.162C15.736 16.092 15.831 16.053 15.93 16.053H16.674C16.773 16.053 16.868 16.092 16.938 16.162C17.008 16.232 17.047 16.327 17.047 16.425V18.039H18.661C18.76 18.039 18.854 18.078 18.924 18.148C18.994 18.218 19.033 18.313 19.033 18.412V19.157ZM25.737 21.515C25.492 21.515 25.252 21.443 25.048 21.306C24.843 21.17 24.684 20.976 24.59 20.749C24.496 20.522 24.472 20.272 24.52 20.032C24.568 19.791 24.686 19.57 24.859 19.396C25.033 19.222 25.254 19.104 25.495 19.056C25.736 19.008 25.986 19.033 26.212 19.127C26.439 19.221 26.633 19.38 26.77 19.584C26.906 19.788 26.979 20.028 26.979 20.274C26.979 20.603 26.848 20.919 26.615 21.152C26.382 21.385 26.067 21.515 25.737 21.515ZM27.724 18.536C27.478 18.536 27.238 18.463 27.034 18.327C26.83 18.19 26.671 17.996 26.577 17.769C26.483 17.543 26.458 17.293 26.506 17.052C26.554 16.811 26.672 16.59 26.846 16.416C27.019 16.243 27.241 16.125 27.481 16.077C27.722 16.029 27.972 16.053 28.199 16.147C28.426 16.241 28.619 16.4 28.756 16.605C28.892 16.809 28.965 17.049 28.965 17.294C28.965 17.624 28.834 17.939 28.601 18.172C28.369 18.405 28.053 18.536 27.724 18.536Z" fill="#161826"/>
</svg>
