<svg width="43" height="38" viewBox="0 0 43 38" fill="none" xmlns="http://www.w3.org/2000/svg">
<path d="M21.0541 38C32.682 38 42.1082 29.4934 42.1082 19C42.1082 8.50659 32.682 0 21.0541 0C9.42624 0 0 8.50659 0 19C0 29.4934 9.42624 38 21.0541 38Z" fill="#EEEFF4"/>
<path d="M25.625 9H16.875C15.8398 9 15 9.84 15 10.875V27.125C15 28.16 15.8398 29 16.875 29H25.625C26.6602 29 27.5 28.16 27.5 27.125V10.875C27.5 9.84 26.6602 9 25.625 9ZM21.25 27.75C20.5586 27.75 20 27.191 20 26.5C20 25.809 20.5586 25.25 21.25 25.25C21.9414 25.25 22.5 25.809 22.5 26.5C22.5 27.191 21.9414 27.75 21.25 27.75ZM25.625 23.531C25.625 23.789 25.4141 24 25.1562 24H17.3438C17.0859 24 16.875 23.789 16.875 23.531V11.344C16.875 11.086 17.0859 10.875 17.3438 10.875H25.1562C25.4141 10.875 25.625 11.086 25.625 11.344V23.531Z" fill="#161826"/>
</svg>
