<svg width="43" height="38" viewBox="0 0 43 38" fill="none" xmlns="http://www.w3.org/2000/svg">
<path d="M21.379 38C33.0069 38 42.4331 29.4934 42.4331 19C42.4331 8.50659 33.0069 0 21.379 0C9.75114 0 0.32489 8.50659 0.32489 19C0.32489 29.4934 9.75114 38 21.379 38Z" fill="#EEEFF4"/>
<path d="M16.283 19.5C17.776 19.5 18.991 18.285 18.991 16.792C18.991 15.298 17.776 14.083 16.283 14.083C14.789 14.083 13.574 15.298 13.574 16.792C13.574 18.285 14.789 19.5 16.283 19.5ZM28.199 15.167H20.616C20.317 15.167 20.074 15.409 20.074 15.708V20.583H12.491V13.542C12.491 13.242 12.249 13 11.949 13H10.866C10.567 13 10.324 13.242 10.324 13.542V25.458C10.324 25.758 10.567 26 10.866 26H11.949C12.249 26 12.491 25.758 12.491 25.458V23.833H29.824V25.458C29.824 25.758 30.067 26 30.366 26H31.449C31.749 26 31.991 25.758 31.991 25.458V18.958C31.991 16.864 30.294 15.167 28.199 15.167Z" fill="#161826"/>
</svg>
